<?xml version="1.0" standalone="no"?>
<!DOCTYPE svg PUBLIC "-//W3C//DTD SVG 20010904//EN"
 "http://www.w3.org/TR/2001/REC-SVG-20010904/DTD/svg10.dtd">
<svg version="1.0" xmlns="http://www.w3.org/2000/svg"
 width="400.000000pt" height="400.000000pt" viewBox="0 0 400 400"
 preserveAspectRatio="xMidYMid meet">

<g transform="translate(0.000000,400.000000) scale(0.0390625,-0.0390625)"
fill="#000000" stroke="none">
<path d="M3645 6784 c-574 -88 -1041 -427 -1295 -939 -115 -233 -167 -442
-177 -710 -11 -302 40 -553 167 -822 170 -359 422 -614 780 -792 258 -128 429
-170 720 -178 210 -5 333 8 534 60 l90 23 -128 64 c-353 175 -612 410 -793
719 -238 403 -300 893 -172 1346 121 425 392 779 784 1025 79 50 251 130 278
130 42 0 1 20 -81 39 -213 50 -515 65 -707 35z"/>
<path d="M6120 6789 c-92 -12 -216 -37 -274 -56 l-48 -15 92 -39 c462 -194
848 -641 984 -1140 52 -191 60 -252 60 -464 0 -169 -3 -218 -23 -315 -71 -357
-212 -627 -461 -884 -162 -167 -353 -299 -586 -407 -48 -22 -85 -41 -83 -43 7
-8 203 -54 279 -66 200 -33 478 -27 655 13 623 143 1102 593 1284 1207 52 173
65 275 65 505 1 232 -15 341 -75 535 -41 129 -154 355 -233 464 -277 384 -683
629 -1162 701 -107 16 -364 18 -474 4z"/>
</g>
</svg>
