<svg version="1.1" id="Layer_1" xmlns="http://www.w3.org/2000/svg" xmlns:xlink="http://www.w3.org/1999/xlink" x="0px" y="0px"
	 width="100%" viewBox="0 0 444 414" enable-background="new 0 0 444 414" xml:space="preserve">
<path fill="none" opacity="1.000000" stroke="none" 
	d="
M431.000000,1.000004 
	C435.664886,1.000000 440.329742,1.000000 444.995972,1.000000 
	C444.997314,138.945206 444.997314,276.890411 444.997314,414.917816 
	C297.111664,414.917816 149.223267,414.917816 1.000000,414.917816 
	C1.000000,327.645508 1.000000,240.290604 1.354338,152.498291 
	C2.059405,152.395554 2.565272,152.664703 2.738259,153.074402 
	C7.559187,164.492157 15.921324,171.649261 27.767042,175.506790 
	C47.768570,182.020264 67.751961,188.668457 87.400269,196.158981 
	C99.885994,200.918930 111.752228,207.303864 123.606064,213.134598 
	C109.710999,220.948044 96.216110,228.791641 82.474564,236.176239 
	C63.547150,246.347717 52.167553,261.335632 52.052326,283.359619 
	C51.854473,321.176758 51.998871,358.995728 51.996796,396.813904 
	C51.996441,403.279449 53.801514,408.814697 60.511368,411.116028 
	C66.835556,413.285095 72.443382,411.986359 77.411453,407.166962 
	C93.046600,391.999573 108.915886,377.073578 124.550499,361.905701 
	C141.872955,345.100342 159.173477,328.267609 176.203949,311.168304 
	C183.273270,304.070435 188.651154,295.643982 192.307556,285.864075 
	C204.776337,262.807281 211.174057,238.434296 210.900436,212.567505 
	C210.686249,192.316910 206.510437,172.791245 198.219559,154.159775 
	C188.378769,132.045227 174.322723,113.117188 155.269348,98.308830 
	C141.802795,87.842560 127.454941,78.506943 113.460243,68.724197 
	C84.783089,48.677944 56.062187,28.694223 27.408480,8.614573 
	C24.112310,6.304717 21.128588,3.548996 18.000000,1.000000 
	C152.688095,1.000000 287.376190,1.000000 422.520630,1.349557 
	C417.301910,5.688269 411.630341,9.682394 405.951202,13.665759 
	C373.912872,36.137444 341.895752,58.639511 309.823578,81.062759 
	C293.506012,92.471199 276.908966,103.527718 264.258118,119.290344 
	C242.429718,146.488022 230.974594,177.601181 230.122925,212.389023 
	C229.735809,228.200989 232.059769,243.903809 237.256714,258.882111 
	C240.377228,267.875793 244.964813,276.360474 248.941971,285.443481 
	C252.236542,295.825592 258.054962,304.313293 265.316742,311.698456 
	C274.876984,321.421143 284.890686,330.697144 294.677765,340.197815 
	C307.333466,352.483154 319.945343,364.813629 332.599701,377.100342 
	C342.863861,387.066284 353.034912,397.134674 363.538757,406.842255 
	C366.077484,409.188538 369.632507,411.343201 372.952393,411.766998 
	C383.151245,413.068817 388.963501,407.465698 388.981506,397.032990 
	C389.037262,364.713043 389.077606,332.392700 388.960876,300.073120 
	C388.928497,291.111176 388.959351,282.070770 387.828278,273.211029 
	C386.443512,262.363892 381.579041,252.507294 372.681427,246.095657 
	C362.361633,238.659241 351.030365,232.619507 340.090118,226.053543 
	C332.715088,221.627274 325.256866,217.339600 318.072083,212.728271 
	C348.394135,196.211777 380.568115,185.247147 413.180450,175.549347 
	C431.764923,170.022964 440.684570,156.439438 440.869110,138.307587 
	C441.275726,98.361977 441.007507,58.409378 440.980865,18.459654 
	C440.976501,11.908786 438.929596,6.409468 432.668732,3.175632 
	C431.933929,2.796095 431.547760,1.741604 431.000000,1.000004 
z"/>
<path fill="#000000" opacity="1.000000" stroke="none" 
	d="
M430.555847,1.000004 
	C431.547760,1.741604 431.933929,2.796095 432.668732,3.175632 
	C438.929596,6.409468 440.976501,11.908786 440.980865,18.459654 
	C441.007507,58.409378 441.275726,98.361977 440.869110,138.307587 
	C440.684570,156.439438 431.764923,170.022964 413.180450,175.549347 
	C380.568115,185.247147 348.394135,196.211777 317.729919,212.812927 
	C298.775848,221.572556 282.469543,233.029892 268.374878,247.435715 
	C258.132690,257.903961 251.704712,270.621399 248.893051,285.073914 
	C244.964813,276.360474 240.377228,267.875793 237.256714,258.882111 
	C232.059769,243.903809 229.735809,228.200989 230.122925,212.389023 
	C230.974594,177.601181 242.429718,146.488022 264.258118,119.290344 
	C276.908966,103.527718 293.506012,92.471199 309.823578,81.062759 
	C341.895752,58.639511 373.912872,36.137444 405.951202,13.665759 
	C411.630341,9.682394 417.301910,5.688269 422.988495,1.349557 
	C425.370575,1.000000 427.741119,1.000000 430.555847,1.000004 
z"/>
<path fill="#000000" opacity="1.000000" stroke="none" 
	d="
M123.896255,212.960098 
	C111.752228,207.303864 99.885994,200.918930 87.400269,196.158981 
	C67.751961,188.668457 47.768570,182.020264 27.767042,175.506790 
	C15.921324,171.649261 7.559187,164.492157 2.738259,153.074402 
	C2.565272,152.664703 2.059405,152.395554 1.354338,152.030457 
	C1.000000,104.645775 1.000000,57.291542 1.346095,9.463253 
	C4.461460,6.326127 7.230730,3.663064 10.000000,1.000000 
	C12.370557,1.000000 14.741115,1.000000 17.555836,1.000000 
	C21.128588,3.548996 24.112310,6.304717 27.408480,8.614573 
	C56.062187,28.694223 84.783089,48.677944 113.460243,68.724197 
	C127.454941,78.506943 141.802795,87.842560 155.269348,98.308830 
	C174.322723,113.117188 188.378769,132.045227 198.219559,154.159775 
	C206.510437,172.791245 210.686249,192.316910 210.900436,212.567505 
	C211.174057,238.434296 204.776337,262.807281 192.187271,285.486267 
	C189.325943,267.461731 180.055191,253.365036 166.920944,241.633087 
	C153.962265,230.057968 139.701492,220.321152 123.896255,212.960098 
z"/>
<path fill="#000000" opacity="1.000000" stroke="none" 
	d="
M9.508951,1.000000 
	C7.230730,3.663064 4.461460,6.326127 1.346095,8.994595 
	C1.000000,6.411248 1.000000,3.822496 1.000000,1.000000 
	C3.670323,1.000000 6.344113,1.000000 9.508951,1.000000 
z"/>
<path fill="#000000" opacity="1.000000" stroke="none" 
	d="
M123.606064,213.134598 
	C139.701492,220.321152 153.962265,230.057968 166.920944,241.633087 
	C180.055191,253.365036 189.325943,267.461731 191.927643,285.717651 
	C188.651154,295.643982 183.273270,304.070435 176.203949,311.168304 
	C159.173477,328.267609 141.872955,345.100342 124.550499,361.905701 
	C108.915886,377.073578 93.046600,391.999573 77.411453,407.166962 
	C72.443382,411.986359 66.835556,413.285095 60.511368,411.116028 
	C53.801514,408.814697 51.996441,403.279449 51.996796,396.813904 
	C51.998871,358.995728 51.854473,321.176758 52.052326,283.359619 
	C52.167553,261.335632 63.547150,246.347717 82.474564,236.176239 
	C96.216110,228.791641 109.710999,220.948044 123.606064,213.134598 
z"/>
<path fill="#000000" opacity="1.000000" stroke="none" 
	d="
M248.941971,285.443481 
	C251.704712,270.621399 258.132690,257.903961 268.374878,247.435715 
	C282.469543,233.029892 298.775848,221.572556 317.493713,213.074585 
	C325.256866,217.339600 332.715088,221.627274 340.090118,226.053543 
	C351.030365,232.619507 362.361633,238.659241 372.681427,246.095657 
	C381.579041,252.507294 386.443512,262.363892 387.828278,273.211029 
	C388.959351,282.070770 388.928497,291.111176 388.960876,300.073120 
	C389.077606,332.392700 389.037262,364.713043 388.981506,397.032990 
	C388.963501,407.465698 383.151245,413.068817 372.952393,411.766998 
	C369.632507,411.343201 366.077484,409.188538 363.538757,406.842255 
	C353.034912,397.134674 342.863861,387.066284 332.599701,377.100342 
	C319.945343,364.813629 307.333466,352.483154 294.677765,340.197815 
	C284.890686,330.697144 274.876984,321.421143 265.316742,311.698456 
	C258.054962,304.313293 252.236542,295.825592 248.941971,285.443481 
z"/>
</svg>