<svg version="1.1" id="Layer_1" xmlns="http://www.w3.org/2000/svg" xmlns:xlink="http://www.w3.org/1999/xlink" x="0px" y="0px"
	 width="100%" viewBox="0 0 350 350" enable-background="new 0 0 350 350" xml:space="preserve">
<path fill="none" opacity="1.000000" stroke="none" 
	d="
M202.000000,351.000000 
	C184.979111,351.000000 167.958206,351.000000 150.769226,350.641571 
	C149.936157,349.861267 149.303818,349.138000 148.601395,349.061920 
	C133.922363,347.472321 120.047096,342.976837 106.617424,337.121979 
	C77.933533,324.616791 53.932331,306.157013 35.267200,280.833038 
	C18.273756,257.777130 7.071137,232.390030 2.926247,203.965607 
	C2.819323,203.232361 1.665561,202.651779 1.000003,202.000000 
	C1.000000,184.979111 1.000000,167.958206 1.358437,150.769226 
	C2.138759,149.936172 2.862061,149.303848 2.938121,148.601440 
	C4.527644,133.922394 9.023140,120.047119 14.877996,106.617447 
	C27.383156,77.933556 45.842957,53.932354 71.166924,35.267231 
	C94.222855,18.273766 119.609955,7.071131 148.034393,2.926242 
	C148.767639,2.819322 149.348221,1.665558 150.000000,1.000002 
	C167.020889,1.000000 184.041794,1.000000 201.230774,1.358441 
	C202.063828,2.138768 202.696167,2.862056 203.398590,2.938120 
	C218.077637,4.527663 231.952896,9.023142 245.382568,14.878017 
	C274.066437,27.383215 298.067657,45.842979 316.732788,71.166939 
	C333.726257,94.222855 344.928864,119.609962 349.073761,148.034393 
	C349.180664,148.767639 350.334442,149.348221 351.000000,150.000000 
	C351.000000,167.020889 351.000000,184.041794 350.641541,201.230759 
	C349.861237,202.063797 349.137939,202.696136 349.061890,203.398560 
	C347.472382,218.077606 342.976837,231.952881 337.122009,245.382553 
	C324.616852,274.066467 306.156952,298.067627 280.833038,316.732788 
	C257.777161,333.726288 232.390060,344.928894 203.965607,349.073761 
	C203.232361,349.180664 202.651779,350.334442 202.000000,351.000000 
M205.059692,73.355255 
	C184.814514,63.335247 163.903793,61.945324 142.559235,69.076637 
	C113.739136,78.705574 94.212868,104.756424 94.069244,133.254135 
	C93.928421,161.197098 112.298012,186.766464 140.009293,197.192184 
	C149.218155,200.656815 158.651123,202.742279 168.835495,202.239304 
	C168.835495,185.644775 168.748367,169.501251 168.909470,153.360214 
	C168.941452,150.157028 168.240570,148.469528 165.020935,147.120834 
	C158.871567,144.544937 155.808929,137.468582 157.478180,131.390549 
	C159.348358,124.580864 164.930283,120.397057 171.895584,120.830299 
	C179.893951,121.327812 183.686035,126.571503 185.355209,133.336304 
	C204.866379,133.336304 223.939484,133.336304 243.517792,133.336304 
	C242.170547,105.920128 228.984985,86.655792 205.059692,73.355255 
M231.300201,271.824554 
	C256.583893,251.379471 265.037079,220.536865 252.662903,192.836487 
	C238.465652,161.055023 204.506775,148.677475 183.709900,150.499573 
	C183.709900,168.240067 183.709900,185.993134 183.709900,203.649017 
	C192.611877,207.732285 196.005508,212.728210 194.944290,219.974091 
	C194.073135,225.922485 189.134735,230.791718 182.987152,231.763718 
	C176.041779,232.861877 170.957687,228.959015 166.509476,219.163483 
	C147.365738,219.163483 128.257050,219.163483 108.932350,219.163483 
	C108.792442,230.808578 111.770210,241.383820 117.492439,251.152618 
	C140.162460,289.854065 193.476395,299.749756 231.300201,271.824554 
z"/>
<path fill="none" opacity="1.000000" stroke="none" 
	d="
M149.531342,1.000002 
	C149.348221,1.665558 148.767639,2.819322 148.034393,2.926242 
	C119.609955,7.071131 94.222855,18.273766 71.166924,35.267231 
	C45.842957,53.932354 27.383156,77.933556 14.877996,106.617447 
	C9.023140,120.047119 4.527644,133.922394 2.938121,148.601440 
	C2.862061,149.303848 2.138759,149.936172 1.358437,150.300568 
	C1.000000,100.406334 1.000000,50.812668 1.000000,1.000000 
	C50.354012,1.000000 99.708351,1.000000 149.531342,1.000002 
z"/>
<path fill="none" opacity="1.000000" stroke="none" 
	d="
M351.000000,149.531342 
	C350.334442,149.348221 349.180664,148.767639 349.073761,148.034393 
	C344.928864,119.609962 333.726257,94.222855 316.732788,71.166939 
	C298.067657,45.842979 274.066437,27.383215 245.382568,14.878017 
	C231.952896,9.023142 218.077637,4.527663 203.398590,2.938120 
	C202.696167,2.862056 202.063828,2.138768 201.699432,1.358441 
	C251.593674,1.000000 301.187347,1.000000 351.000000,1.000000 
	C351.000000,50.354012 351.000000,99.708351 351.000000,149.531342 
z"/>
<path fill="none" opacity="1.000000" stroke="none" 
	d="
M1.000003,202.468658 
	C1.665561,202.651779 2.819323,203.232361 2.926247,203.965607 
	C7.071137,232.390030 18.273756,257.777130 35.267200,280.833038 
	C53.932331,306.157013 77.933533,324.616791 106.617424,337.121979 
	C120.047096,342.976837 133.922363,347.472321 148.601395,349.061920 
	C149.303818,349.138000 149.936157,349.861267 150.300568,350.641571 
	C100.406334,351.000000 50.812668,351.000000 1.000000,351.000000 
	C1.000000,301.645996 1.000000,252.291656 1.000003,202.468658 
z"/>
<path fill="none" opacity="1.000000" stroke="none" 
	d="
M202.468658,351.000000 
	C202.651779,350.334442 203.232361,349.180664 203.965607,349.073761 
	C232.390060,344.928894 257.777161,333.726288 280.833038,316.732788 
	C306.156952,298.067627 324.616852,274.066467 337.122009,245.382553 
	C342.976837,231.952881 347.472382,218.077606 349.061890,203.398560 
	C349.137939,202.696136 349.861237,202.063797 350.641541,201.699417 
	C351.000000,251.593674 351.000000,301.187347 351.000000,351.000000 
	C301.645996,351.000000 252.291656,351.000000 202.468658,351.000000 
z"/>
<path fill="#000000" opacity="1.000000" stroke="none" 
	d="
M205.371902,73.561676 
	C228.984985,86.655792 242.170547,105.920128 243.517792,133.336304 
	C223.939484,133.336304 204.866379,133.336304 185.355209,133.336304 
	C183.686035,126.571503 179.893951,121.327812 171.895584,120.830299 
	C164.930283,120.397057 159.348358,124.580864 157.478180,131.390549 
	C155.808929,137.468582 158.871567,144.544937 165.020935,147.120834 
	C168.240570,148.469528 168.941452,150.157028 168.909470,153.360214 
	C168.748367,169.501251 168.835495,185.644775 168.835495,202.239304 
	C158.651123,202.742279 149.218155,200.656815 140.009293,197.192184 
	C112.298012,186.766464 93.928421,161.197098 94.069244,133.254135 
	C94.212868,104.756424 113.739136,78.705574 142.559235,69.076637 
	C163.903793,61.945324 184.814514,63.335247 205.371902,73.561676 
z"/>
<path fill="#000000" opacity="1.000000" stroke="none" 
	d="
M231.010193,272.030945 
	C193.476395,299.749756 140.162460,289.854065 117.492439,251.152618 
	C111.770210,241.383820 108.792442,230.808578 108.932350,219.163483 
	C128.257050,219.163483 147.365738,219.163483 166.509476,219.163483 
	C170.957687,228.959015 176.041779,232.861877 182.987152,231.763718 
	C189.134735,230.791718 194.073135,225.922485 194.944290,219.974091 
	C196.005508,212.728210 192.611877,207.732285 183.709900,203.649017 
	C183.709900,185.993134 183.709900,168.240067 183.709900,150.499573 
	C204.506775,148.677475 238.465652,161.055023 252.662903,192.836487 
	C265.037079,220.536865 256.583893,251.379471 231.010193,272.030945 
z"/>
</svg>